<?xml version="1.0" standalone="no"?>
<!DOCTYPE svg PUBLIC "-//W3C//DTD SVG 20010904//EN"
 "http://www.w3.org/TR/2001/REC-SVG-20010904/DTD/svg10.dtd">
<svg version="1.0" xmlns="http://www.w3.org/2000/svg"
 width="2480.000000pt" height="2480.000000pt" viewBox="0 0 2480.000000 2480.000000"
 preserveAspectRatio="xMidYMid meet">

<g transform="translate(0.000000,2480.000000) scale(0.100000,-0.100000)"
fill="#000000" stroke="none">
<path d="M12279 22918 c-160 -192 -463 -465 -812 -733 -107 -83 -156 -115
-176 -115 -16 0 -122 7 -237 16 -247 19 -542 14 -679 -11 -339 -62 -631 -232
-961 -560 -236 -234 -340 -428 -534 -990 -87 -252 -156 -428 -210 -535 -22
-44 -40 -82 -40 -85 0 -3 89 -5 198 -5 108 0 213 -5 232 -10 98 -27 181 -120
196 -217 l6 -43 197 0 c159 0 207 -3 247 -17 68 -23 144 -101 172 -176 21 -56
22 -73 22 -450 0 -391 0 -392 -24 -442 -29 -62 -76 -107 -141 -137 -48 -22
-59 -23 -261 -20 l-211 3 -6 -60 c-10 -110 -89 -214 -185 -241 -23 -6 -217
-10 -517 -10 l-480 0 -50 24 c-60 28 -127 99 -143 154 -8 27 -12 156 -12 417
0 355 -1 377 -17 370 -138 -59 -187 -69 -318 -69 -121 0 -137 2 -225 32 -139
48 -263 122 -430 255 -41 33 -275 261 -520 506 -549 552 -686 667 -945 796
-204 101 -379 143 -645 152 -262 9 -459 -31 -675 -137 -382 -188 -650 -551
-771 -1045 -36 -150 -54 -308 -54 -485 0 -306 25 -405 199 -780 72 -155 212
-420 221 -420 3 0 14 21 25 46 l20 45 170 -182 c94 -100 198 -213 231 -251
l62 -68 -439 -914 c-265 -552 -439 -925 -439 -942 0 -64 29 -89 200 -170 88
-43 160 -80 160 -83 0 -3 -217 -115 -483 -248 -737 -370 -967 -519 -1296 -838
-386 -376 -602 -779 -677 -1266 -27 -169 -24 -471 4 -646 80 -494 247 -777
552 -936 210 -110 432 -161 995 -227 454 -53 716 -104 979 -191 529 -174 812
-440 898 -844 11 -52 21 -154 25 -244 l6 -153 -32 16 c-29 16 -40 16 -111 2
-8 -2 -23 -6 -33 -11 -10 -4 -21 -5 -24 -1 -3 3 -11 2 -17 -4 -7 -5 -27 -12
-46 -15 -43 -8 -51 -10 -70 -18 -35 -14 -101 -27 -109 -22 -5 3 -11 0 -13 -5
-2 -6 -17 -13 -33 -15 -17 -2 -31 -4 -32 -6 -2 -1 -6 -2 -10 -3 -5 -1 -17 -5
-28 -9 -14 -5 -245 -385 -700 -1154 l-678 -1147 12 -60 c14 -65 18 -84 26
-116 3 -11 8 -30 11 -43 7 -31 10 -40 17 -57 4 -8 8 -26 10 -40 2 -14 6 -32 9
-40 12 -32 28 -99 27 -107 -2 -9 16 -58 29 -82 5 -8 185 -119 402 -247 216
-128 397 -237 401 -241 5 -5 -2 -69 -15 -143 -53 -295 -61 -388 -61 -700 0
-236 4 -318 18 -409 77 -484 269 -872 597 -1202 133 -134 260 -237 450 -365
541 -365 996 -542 1542 -599 446 -46 1112 14 1479 135 270 89 446 197 645 394
146 146 256 288 440 567 l124 188 42 5 c24 3 131 15 238 26 548 58 1485 190
2090 296 l145 25 23 -28 c103 -125 281 -447 347 -627 l28 -77 -46 -147 c-61
-193 -72 -237 -96 -363 -41 -216 -44 -301 -22 -587 12 -143 21 -263 21 -266 0
-16 99 -4 145 18 118 55 200 201 235 419 7 42 14 77 16 77 2 0 24 -22 50 -50
58 -62 114 -90 182 -90 62 0 55 -26 78 298 18 250 13 377 -22 546 l-16 76 52
98 c53 98 179 290 205 312 11 9 30 -13 104 -124 192 -286 434 -582 592 -722
255 -226 607 -381 962 -425 140 -17 414 -6 540 21 197 42 386 119 542 220 98
64 237 203 289 287 86 143 123 308 112 499 l-6 112 83 27 c165 55 281 128 393
248 161 173 236 386 250 711 7 152 -6 237 -46 316 -33 64 -33 63 98 57 141 -7
208 -24 327 -82 189 -93 336 -228 659 -603 220 -257 405 -443 504 -509 34 -23
110 -60 169 -83 445 -174 972 -157 1369 43 228 115 403 290 496 494 77 171
109 426 73 589 -47 214 -189 398 -448 581 -43 31 -77 59 -75 63 2 4 89 81 193
170 244 210 490 429 735 655 287 266 377 355 362 362 -46 19 -277 209 -467
383 -217 200 -575 554 -568 560 22 21 349 81 568 105 779 85 1667 448 2269
929 605 483 916 1046 916 1659 0 222 -38 422 -121 632 -170 435 -464 786 -989
1179 -185 138 -587 413 -594 405 -2 -2 -183 -382 -401 -844 -218 -462 -399
-843 -401 -846 -2 -4 -610 280 -1351 631 -908 429 -1347 642 -1345 651 2 7
368 785 814 1729 446 943 824 1743 839 1778 15 34 33 62 40 62 6 0 131 -57
278 -126 146 -70 289 -137 317 -150 l52 -23 52 87 c29 48 187 290 350 537 435
658 607 956 703 1215 122 328 125 582 9 779 -64 110 -200 225 -358 304 -250
125 -721 225 -1004 214 -350 -15 -677 -129 -1535 -537 -578 -275 -788 -363
-1055 -444 -183 -55 -275 -69 -445 -70 -148 0 -166 2 -242 27 -237 79 -390
270 -477 597 -44 164 -59 290 -53 445 9 223 35 353 220 1075 183 719 199 1037
67 1305 -50 102 -102 162 -195 224 -264 176 -706 196 -1008 45 -108 -54 -183
-111 -284 -218 -167 -174 -284 -379 -484 -851 -120 -285 -201 -456 -256 -546
l-40 -66 116 -6 c226 -13 430 -64 618 -156 444 -217 752 -618 850 -1106 27
-138 25 -455 -5 -591 -50 -232 -148 -448 -281 -624 -229 -302 -531 -498 -907
-586 -111 -27 -133 -28 -334 -28 -184 0 -229 3 -313 22 -315 70 -558 202 -783
427 -237 237 -379 509 -435 836 -18 106 -21 150 -16 304 8 249 43 404 142 612
81 172 230 375 350 479 l55 47 -46 49 c-100 107 -128 222 -121 493 6 224 19
308 122 820 93 463 107 558 108 720 0 116 -3 139 -27 210 -114 334 -357 538
-668 561 l-93 7 -84 75 c-46 42 -197 187 -335 323 l-252 248 -85 -101z m322
-343 c101 -118 191 -210 275 -283 l61 -53 -5 -93 c-4 -84 -2 -99 20 -148 l25
-54 -265 -230 c-530 -458 -1024 -871 -1215 -1014 l-58 -43 -95 18 c-151 28
-266 6 -340 -66 l-32 -31 -228 116 c-210 106 -418 217 -432 231 -3 3 2 21 11
40 21 45 22 117 1 158 -9 18 -32 48 -50 68 l-34 35 192 119 c833 513 1455 978
1639 1226 l49 66 79 -5 c93 -5 151 11 226 62 l50 34 20 -26 c11 -15 59 -72
106 -127z m-7524 -2398 c20 -22 33 -28 53 -23 l27 5 7 -102 c3 -56 12 -130 19
-164 13 -61 13 -63 -10 -85 -27 -26 -63 -96 -63 -125 0 -15 -13 -26 -51 -41
-349 -145 -822 -642 -1209 -1269 l-62 -101 -50 35 c-59 42 -119 53 -165 29
l-31 -15 -36 95 c-20 52 -43 123 -51 156 l-14 62 45 48 c89 95 118 212 74 298
l-20 39 82 102 c360 448 815 826 1263 1049 130 65 141 69 153 53 7 -10 24 -31
39 -46z m795 -1426 l204 -98 32 28 c55 49 86 42 305 -64 209 -101 217 -108
217 -190 l1 -42 200 -95 c110 -52 206 -102 213 -110 24 -27 39 -91 33 -145 -6
-56 -61 -188 -102 -240 l-24 -32 136 -64 c142 -66 173 -93 173 -148 0 -33
-1334 -2809 -1364 -2840 -50 -49 -27 -59 -1126 469 -564 271 -1035 500 -1047
508 -13 8 -28 31 -34 52 -10 31 -8 44 8 81 11 24 314 656 672 1404 394 820
663 1369 677 1383 40 35 87 29 205 -27 57 -28 110 -51 117 -53 9 -2 20 17 31
52 24 74 64 152 101 194 35 39 103 76 141 76 15 0 119 -44 231 -99z m14093
-899 c28 -52 93 -84 164 -80 l54 3 189 -218 190 -217 -31 -29 c-43 -40 -52
-94 -26 -153 6 -15 2 -18 -22 -18 -17 0 -65 -9 -107 -20 -313 -80 -713 -330
-1133 -707 -237 -213 -828 -601 -1211 -794 l-172 -88 -58 27 c-52 25 -67 27
-177 27 -106 -1 -129 -4 -195 -28 -41 -15 -82 -30 -90 -33 -14 -5 -179 208
-332 426 -75 108 -74 102 -29 161 44 54 66 117 55 152 -3 12 -18 37 -31 55
-14 18 -23 34 -22 36 2 1 36 15 74 31 102 42 393 192 515 265 270 162 509 333
744 533 270 229 541 385 916 525 168 63 350 115 528 152 183 38 183 38 207 -8z
m-15597 -318 c33 -23 28 -57 -28 -171 -57 -120 -82 -140 -128 -106 -15 11 -28
29 -30 39 -3 23 83 209 109 235 23 23 47 24 77 3z m-149 -365 c16 -28 18 -23
-197 -469 -136 -282 -231 -479 -305 -635 -39 -82 -96 -199 -127 -260 -54 -108
-56 -110 -92 -113 -30 -3 -40 1 -53 22 -20 31 -20 32 62 204 326 681 597 1241
609 1260 22 33 82 28 103 -9z m11443 -468 c209 -54 384 -195 478 -386 57 -117
74 -190 74 -325 0 -140 -16 -209 -81 -340 -38 -79 -61 -110 -132 -181 -71 -71
-102 -94 -181 -132 -131 -65 -200 -81 -340 -81 -132 0 -205 17 -317 70 -74 35
-216 141 -227 170 -3 8 -10 12 -16 9 -5 -3 -10 -1 -10 5 0 6 -13 30 -29 53
-15 23 -40 65 -54 93 -20 39 -33 53 -59 61 -32 11 -32 11 -5 12 15 1 27 2 27
4 0 2 -8 28 -17 58 -14 41 -18 89 -18 199 0 137 2 150 31 233 88 245 269 412
515 477 101 26 260 27 361 1z m-6787 -248 c24 -9 56 -12 80 -9 38 6 41 4 65
-31 14 -21 79 -91 144 -156 103 -102 118 -121 108 -135 -37 -53 -52 -95 -52
-149 -1 -57 -1 -58 -42 -83 -136 -83 -461 -474 -778 -938 l-124 -181 -33 29
c-48 42 -88 49 -144 26 -13 -6 -33 29 -104 181 -119 255 -113 234 -73 284 33
41 33 42 33 151 l0 109 52 63 c76 92 242 274 537 589 188 200 265 276 276 271
8 -4 33 -13 55 -21z m3879 -156 c50 -174 60 -270 50 -512 -5 -121 -9 -344 -8
-495 0 -277 11 -391 48 -513 l13 -42 7 30 c66 273 82 311 146 342 53 26 126
29 158 7 12 -8 29 -29 38 -47 42 -80 -28 -436 -117 -593 -57 -100 -141 -164
-219 -164 -22 0 -40 -1 -41 -2 0 -2 -5 -97 -9 -213 -7 -174 -13 -227 -34 -307
-62 -241 -207 -478 -392 -640 -57 -49 -199 -148 -214 -148 -7 0 -24 -301 -25
-439 l0 -63 95 -34 c52 -19 140 -56 195 -84 117 -59 346 -211 437 -290 94 -82
296 -299 403 -435 206 -260 496 -678 562 -809 70 -140 185 -296 355 -480 152
-163 195 -184 263 -124 131 115 225 557 279 1318 9 113 18 281 22 373 l7 169
43 -7 c42 -6 43 -6 48 27 22 142 36 460 30 700 -16 645 48 878 253 923 41 8
135 -32 153 -66 13 -23 13 -22 31 13 45 89 122 119 247 100 102 -16 112 -19
180 -53 81 -40 152 -111 193 -195 l33 -67 43 89 c23 49 43 94 43 101 0 20 59
62 96 69 47 9 93 -13 129 -60 23 -30 27 -43 23 -79 -8 -61 -93 -230 -202 -402
-46 -72 -30 -61 89 62 75 78 83 83 122 83 53 0 95 -34 111 -88 16 -54 6 -77
-64 -145 -48 -47 -60 -54 -73 -44 -14 10 -14 10 -4 -4 10 -13 6 -22 -30 -55
-118 -112 -292 -246 -425 -327 l-79 -48 -6 -181 c-4 -100 -7 -254 -7 -344 l0
-162 51 -7 52 -7 -7 -63 c-3 -35 -22 -157 -41 -272 -168 -999 -429 -1762 -752
-2195 -85 -115 -306 -321 -378 -354 -84 -39 -163 -50 -256 -36 -249 36 -513
229 -807 590 l-92 113 0 -1605 0 -1606 -65 0 -65 0 0 70 0 70 -75 0 -75 0 0
-70 0 -70 -375 0 -375 0 0 50 0 50 -80 0 -80 0 0 -50 0 -50 -102 0 -103 0 0
-176 0 -176 -37 -34 -38 -34 -271 0 -271 0 -39 39 -39 39 0 171 0 171 -110 0
-110 0 0 50 0 50 -80 0 -80 0 0 -50 0 -50 -310 0 -310 0 0 50 0 50 -80 0 -80
0 0 -50 0 -50 -53 0 -54 0 -6 118 c-54 987 -58 1095 -64 1902 -4 503 -2 856 6
1054 7 164 10 300 8 302 -2 2 -44 -49 -94 -114 -303 -391 -495 -573 -717 -683
-94 -45 -217 -79 -290 -79 -67 0 -160 24 -215 57 -53 31 -228 192 -294 271
-355 421 -646 1257 -823 2362 -19 118 -34 220 -34 226 0 7 25 15 55 19 l55 6
-6 337 c-6 293 -9 339 -23 353 -9 9 -61 44 -116 79 -135 85 -245 172 -385 304
-169 160 -174 166 -165 223 10 66 49 103 109 103 44 0 47 -2 152 -107 59 -60
98 -94 88 -78 -10 17 -39 64 -65 106 -89 143 -152 278 -156 333 -5 63 21 110
72 132 45 19 73 18 113 -4 38 -20 44 -30 102 -157 l41 -90 34 71 c42 87 111
154 203 197 37 17 74 33 82 35 71 14 162 23 196 17 56 -8 119 -55 135 -99 l13
-35 37 34 c48 43 100 58 154 44 97 -26 150 -88 189 -221 36 -126 46 -265 46
-672 0 -241 5 -431 15 -541 8 -93 15 -181 15 -194 0 -22 3 -23 44 -17 l44 7 6
-83 c3 -46 12 -204 21 -353 51 -891 170 -1411 332 -1451 41 -11 79 15 190 129
175 180 305 352 383 507 72 143 407 618 620 880 142 174 347 374 465 453 55
37 129 88 165 113 72 50 281 155 348 175 29 8 42 18 42 30 0 25 19 312 25 382
l5 58 -33 11 c-63 22 -186 89 -249 135 -244 179 -408 403 -484 660 -20 70 -29
135 -42 316 -16 218 -17 227 -37 227 -34 0 -122 49 -155 86 -91 104 -159 353
-160 584 0 92 17 137 61 160 36 20 113 7 170 -29 l52 -32 -7 93 c-15 217 -19
537 -7 649 22 215 103 529 136 529 8 0 63 -14 122 -30 138 -39 412 -94 573
-116 165 -22 555 -30 691 -15 281 33 534 116 704 234 l50 35 13 -29 c7 -16 23
-66 36 -112z m-9371 -1595 c184 57 414 35 598 -57 336 -169 510 -569 409 -935
-38 -133 -103 -243 -205 -346 -105 -106 -189 -159 -325 -205 -90 -31 -103 -33
-240 -33 -163 -1 -226 11 -347 68 -252 120 -411 330 -459 609 -29 163 -5 315
76 482 75 156 209 291 362 366 40 19 49 29 55 58 l8 36 3 -31 3 -32 62 20z
m3750 -1651 c25 -31 43 -93 31 -112 -8 -13 -69 44 -91 84 -30 58 16 79 60 28z
m9297 3 c0 -17 -16 -43 -50 -77 l-50 -52 0 32 c0 64 36 123 77 123 18 0 23 -5
23 -26z m-11004 -919 c10 -46 41 -102 81 -146 36 -40 36 -40 39 -143 2 -56 12
-149 24 -206 34 -167 132 -445 218 -615 l25 -50 -66 66 c-77 77 -158 123 -241
138 -167 31 -200 -13 -94 -126 47 -49 49 -53 22 -43 -43 17 -167 113 -268 210
-152 145 -280 327 -345 490 -30 75 -81 242 -81 264 0 7 16 18 36 25 41 15 89
76 104 133 l11 38 264 -2 264 -3 7 -30z m11916 -766 c39 -10 109 -8 178 6 22
4 31 -5 82 -83 94 -144 183 -249 352 -417 251 -250 464 -386 714 -460 l74 -21
-87 -27 -86 -27 -31 29 c-41 39 -161 101 -283 147 -84 32 -113 38 -180 38 -65
1 -89 -3 -128 -23 -64 -31 -97 -81 -97 -144 0 -57 19 -98 68 -149 20 -21 30
-38 24 -38 -20 0 -181 64 -252 100 -223 112 -483 309 -788 597 l-132 125 25
30 c20 23 25 41 25 81 0 29 -4 67 -9 84 -9 30 -6 35 25 63 63 55 194 110 339
143 60 14 60 14 92 -14 18 -16 52 -33 75 -40z m-11050 -358 c32 -47 113 -89
187 -98 l54 -6 27 -61 c28 -61 90 -246 90 -267 0 -15 -82 -88 -99 -89 -46 -1
-385 204 -490 296 -51 45 -171 188 -171 204 0 4 42 10 93 13 50 4 126 15 167
26 105 27 111 26 142 -18z m13148 -221 c0 -35 31 -70 63 -70 39 -1 -47 -66
-158 -120 -152 -74 -355 -113 -487 -95 l-53 8 40 13 c29 10 48 26 69 59 32 52
52 65 98 65 68 0 141 62 155 132 6 30 -1 28 216 36 l57 2 0 -30z m-1078 -390
c11 -19 13 -32 7 -36 -7 -4 -7 -10 -1 -16 6 -6 20 -4 40 6 30 15 32 15 46 -6
9 -12 16 -26 16 -30 0 -4 -25 -15 -56 -24 -51 -14 -57 -14 -73 0 -10 9 -27 16
-39 16 -11 0 -30 13 -41 29 l-21 28 48 31 c26 17 49 31 52 31 3 1 13 -12 22
-29z m-103 -111 c18 -11 31 -22 28 -25 -8 -8 -179 -46 -184 -41 -9 10 23 59
46 72 37 20 71 18 110 -6z m-1376 -875 c167 49 171 50 327 49 182 0 255 -16
407 -88 486 -230 686 -806 448 -1290 -128 -259 -369 -447 -659 -512 -108 -24
-309 -22 -416 5 -229 56 -420 183 -561 372 -54 73 -112 194 -145 305 -25 82
-28 104 -28 255 0 139 4 177 22 243 74 269 258 495 499 616 55 27 63 35 70 68
l8 38 3 -33 c3 -30 6 -33 25 -28z m-8868 -1653 c55 -36 87 -101 82 -166 -3
-40 -17 -74 -72 -167 -38 -65 -72 -118 -76 -118 -5 0 -150 554 -149 572 0 7
134 -68 215 -121z m11285 -44 c-112 -109 -361 -328 -382 -336 -19 -6 74 123
131 183 73 76 161 145 269 211 48 30 89 54 92 54 3 0 -47 -50 -110 -112z m636
-69 c129 -154 309 -340 391 -402 50 -38 51 -39 41 -74 -5 -19 -8 -74 -6 -121
2 -68 8 -97 29 -139 l26 -52 -216 -188 c-695 -604 -1266 -1082 -1514 -1268
l-108 -82 -46 14 c-78 24 -194 34 -268 23 -85 -12 -141 -36 -195 -85 l-42 -38
-146 73 c-176 87 -492 254 -579 305 l-63 37 20 39 c43 85 19 197 -59 278 l-38
39 56 33 c454 269 1154 736 1511 1008 296 225 545 455 629 580 37 55 45 62 64
55 12 -4 60 -8 107 -8 77 0 92 3 160 36 41 20 86 46 100 57 14 12 26 21 26 22
1 0 55 -64 120 -142z m-13340 -2625 c-14 -35 -106 -179 -128 -200 -60 -56
-144 -58 -237 -6 -110 61 -152 90 -139 96 45 17 190 47 199 41 8 -5 9 -3 4 6
-6 10 -4 12 7 7 9 -3 21 0 27 6 6 6 11 8 11 5 0 -4 15 -1 34 7 18 8 43 12 55
10 11 -2 21 1 21 7 0 6 3 8 7 5 3 -4 12 -2 20 5 7 6 16 9 19 6 2 -3 21 1 42 8
51 18 65 18 58 -3z"/>
<path d="M12369 22370 c-179 -94 -110 -334 95 -334 80 0 138 31 174 92 72 124
-21 263 -175 262 -37 -1 -71 -8 -94 -20z"/>
<path d="M11594 22050 c-269 -88 -391 -369 -258 -596 37 -62 126 -141 197
-175 241 -112 544 -14 651 210 28 60 31 75 31 166 0 93 -2 105 -32 166 -43 87
-120 159 -220 206 -73 35 -83 37 -192 40 -94 3 -127 -1 -177 -17z m249 -200
c4 -4 -11 -28 -34 -53 -38 -44 -42 -46 -62 -32 -27 19 -50 19 -87 0 -33 -17
-47 -50 -30 -70 18 -22 54 -18 110 10 27 14 74 32 104 39 69 18 110 8 155 -38
48 -50 54 -117 16 -181 l-27 -47 28 -29 28 -29 -39 -40 -39 -40 -36 35 c-47
46 -105 49 -77 4 10 -16 6 -24 -28 -58 l-40 -40 -68 64 -69 64 39 46 c25 31
42 43 53 39 35 -15 57 -14 88 6 44 27 61 65 40 86 -14 15 -23 13 -99 -21 -134
-61 -198 -58 -258 10 -40 46 -48 101 -23 159 20 44 20 45 1 62 -27 24 -24 35
16 74 l35 34 28 -27 c17 -16 39 -27 56 -27 23 0 26 3 21 21 -5 16 2 30 31 60
l38 39 60 -57 c34 -31 64 -60 69 -63z"/>
<path d="M10927 21220 c-147 -44 -172 -239 -41 -316 117 -69 268 -18 304 104
41 135 -112 257 -263 212z"/>
<path d="M4826 19890 c-79 -70 -68 -180 19 -180 58 0 125 73 125 137 0 76 -79
100 -144 43z"/>
<path d="M4302 19590 c-144 -35 -237 -225 -169 -344 30 -54 75 -79 141 -78 89
1 168 56 215 149 30 60 29 158 -1 203 -43 63 -111 89 -186 70z m46 -110 l22
-29 -21 -15 c-12 -8 -26 -13 -31 -10 -14 9 -48 -7 -48 -23 0 -12 7 -14 28 -9
82 19 93 19 112 1 16 -15 20 -29 18 -72 -2 -57 -20 -85 -40 -65 -15 15 -39 16
-35 1 1 -6 -6 -16 -16 -22 -15 -10 -22 -7 -44 17 -24 29 -24 30 -7 43 11 8 29
11 41 8 16 -4 25 1 34 16 12 24 19 23 -84 4 -62 -12 -97 39 -66 97 8 14 8 23
0 31 -7 7 -7 14 0 24 15 17 29 16 51 -4 15 -13 18 -14 18 -2 0 18 20 39 35 38
5 0 20 -13 33 -29z"/>
<path d="M3800 18899 c-35 -14 -88 -67 -111 -111 -11 -22 -19 -58 -19 -88 0
-44 4 -56 30 -82 28 -28 36 -30 80 -26 87 9 169 94 178 187 5 53 -15 103 -47
121 -24 12 -78 12 -111 -1z"/>
<path d="M19795 17594 c-71 -37 -105 -89 -105 -161 0 -57 23 -99 75 -139 53
-40 144 -46 210 -14 131 64 133 246 3 309 -53 25 -139 28 -183 5z"/>
<path d="M18695 17268 c-83 -15 -187 -72 -253 -137 -183 -180 -184 -459 -3
-640 202 -201 540 -201 742 0 180 180 180 457 -1 637 -123 123 -302 175 -485
140z m25 -146 c41 16 117 4 146 -23 71 -66 71 -139 1 -250 -26 -40 -47 -80
-47 -90 0 -25 28 -31 60 -12 36 21 53 52 48 89 -2 24 4 34 41 61 24 18 47 30
52 28 9 -6 99 -132 99 -139 0 -3 -19 -19 -42 -36 -38 -28 -42 -29 -59 -14 -17
15 -18 15 -25 -10 -5 -20 0 -35 20 -60 14 -19 26 -37 26 -40 0 -3 -19 -20 -42
-36 l-42 -30 -19 30 c-14 22 -24 29 -36 24 -97 -40 -147 -37 -197 12 -61 61
-56 131 15 241 50 77 56 97 36 117 -22 21 -29 20 -60 -7 -27 -23 -35 -55 -22
-92 5 -16 -4 -27 -39 -53 -25 -19 -47 -32 -48 -30 -2 1 -26 34 -54 73 l-51 69
46 33 c32 23 50 30 58 23 30 -25 34 30 5 70 l-20 28 42 32 43 31 20 -24 c17
-21 24 -23 45 -15z"/>
<path d="M17585 16217 c-102 -58 -123 -184 -43 -266 42 -43 85 -61 145 -61
126 1 218 110 189 224 -8 32 -60 93 -97 112 -44 22 -146 18 -194 -9z"/>
<path d="M8924 16270 c-11 -4 -33 -22 -47 -40 -65 -77 -10 -210 86 -210 40 0
90 41 107 88 13 37 13 47 0 84 -24 67 -88 102 -146 78z"/>
<path d="M8485 15988 c-132 -68 -194 -222 -151 -371 48 -165 218 -247 363
-174 207 106 209 438 2 542 -63 32 -155 34 -214 3z m-17 -105 c9 -15 12 -15
45 0 19 9 42 17 51 17 31 0 66 -24 81 -57 18 -37 12 -70 -28 -146 -20 -39 -17
-67 7 -67 25 0 49 45 37 68 -8 15 -5 24 17 45 l28 27 42 -43 42 -43 -24 -23
c-15 -14 -32 -21 -40 -18 -21 8 -22 -30 -1 -53 13 -15 12 -19 -10 -40 -23 -22
-26 -22 -43 -7 -12 11 -22 13 -32 7 -31 -20 -80 -11 -111 19 -37 37 -38 76 -4
143 28 55 31 73 13 84 -17 11 -61 -45 -54 -70 5 -21 -27 -66 -49 -66 -6 0 -27
20 -48 44 l-37 45 30 21 c16 12 34 19 39 15 21 -12 21 16 0 44 l-22 30 24 20
c30 25 36 25 47 4z"/>
<path d="M8128 15362 c-73 -44 -76 -167 -6 -216 29 -21 97 -20 127 0 13 9 29
32 37 50 49 116 -58 229 -158 166z"/>
<path d="M10832 15314 c-27 -18 -29 -55 -4 -77 16 -15 47 -17 231 -17 127 0
220 4 232 10 23 13 26 62 3 84 -23 24 -429 24 -462 0z"/>
<path d="M12072 15314 c-27 -18 -29 -55 -4 -77 16 -15 48 -17 235 -17 183 0
218 2 231 16 21 21 20 57 -2 77 -27 24 -426 25 -460 1z"/>
<path d="M10887 15189 c-114 -27 -213 -117 -247 -226 -24 -79 -25 -122 -4
-193 30 -102 93 -172 194 -218 48 -23 72 -26 190 -30 206 -6 302 19 385 102
62 62 88 125 93 228 l4 87 72 16 c97 23 208 22 271 -2 l50 -19 6 -84 c7 -101
32 -161 93 -223 83 -86 178 -111 386 -105 118 4 142 7 190 30 101 46 164 116
194 218 21 71 20 114 -4 193 -27 88 -95 163 -182 202 -57 27 -75 29 -201 33
-241 7 -336 -28 -432 -161 l-20 -27 -63 20 c-79 25 -219 27 -324 5 -73 -16
-73 -16 -88 7 -24 38 -88 97 -128 117 -20 10 -61 24 -90 30 -62 13 -290 13
-345 0z m389 -106 c52 -28 108 -90 125 -139 28 -87 10 -181 -49 -246 -64 -70
-98 -82 -257 -86 -84 -3 -161 1 -192 8 -67 14 -124 57 -160 117 -24 41 -28 59
-28 123 0 64 4 82 28 122 15 26 43 59 62 74 63 48 96 54 270 51 142 -2 165 -5
201 -24z m1247 13 c55 -20 103 -61 134 -114 24 -40 28 -58 28 -122 0 -64 -4
-82 -28 -123 -36 -60 -93 -103 -160 -117 -31 -7 -108 -11 -192 -8 -119 3 -146
7 -180 25 -88 47 -137 127 -137 223 -1 112 71 207 182 241 44 13 311 9 353 -5z"/>
<path d="M10992 14947 c-47 -50 -10 -137 58 -137 19 0 40 9 55 25 16 15 25 36
25 55 0 69 -91 107 -138 57z"/>
<path d="M12272 14947 c-46 -49 -10 -137 55 -137 71 1 108 86 58 135 -32 33
-83 34 -113 2z"/>
<path d="M8150 13531 c0 -5 -16 -22 -35 -37 -29 -22 -51 -28 -122 -35 -141
-13 -166 -43 -171 -214 -4 -137 3 -152 83 -184 87 -34 165 -32 247 6 35 17 76
42 91 56 26 25 27 30 22 94 -14 156 -25 201 -61 244 -19 23 -34 47 -34 54 0 8
-4 17 -10 20 -5 3 -10 2 -10 -4z"/>
<path d="M15326 13517 c-3 -14 -19 -39 -36 -57 -36 -38 -47 -83 -56 -218 l-7
-98 39 -32 c92 -76 225 -95 333 -47 33 15 62 34 65 42 13 34 17 152 7 206 -21
115 -46 137 -165 145 -78 5 -113 19 -149 58 l-24 26 -7 -25z"/>
<path d="M16284 13134 c-3 -19 -3 -39 2 -44 5 -5 10 10 10 36 2 53 -3 56 -12
8z"/>
<path d="M7202 13120 c0 -19 2 -27 5 -17 2 9 2 25 0 35 -3 9 -5 1 -5 -18z"/>
<path d="M11321 11791 c-13 -10 -20 -20 -15 -23 5 -3 77 -22 161 -43 171 -42
158 -27 114 -127 l-20 -48 41 -66 42 -66 -178 -1560 -177 -1560 33 -42 c407
-518 502 -636 509 -629 4 4 103 154 218 333 166 255 210 330 206 350 -2 14
-106 717 -230 1563 l-226 1537 47 78 c43 72 46 79 34 107 -29 71 -34 67 105
100 70 16 128 32 131 36 9 16 -48 39 -96 39 -58 0 -99 -15 -173 -63 -94 -62
-141 -61 -233 9 -87 65 -153 94 -216 94 -36 0 -61 -6 -77 -19z"/>
<path d="M11781 7414 c-29 -37 -27 -79 5 -111 21 -21 32 -24 62 -19 67 10 93
76 51 130 -16 20 -29 26 -59 26 -30 0 -43 -6 -59 -26z"/>
<path d="M11571 6474 l-31 -26 0 -113 c0 -123 9 -157 47 -174 14 -7 90 -11
193 -11 103 0 179 4 193 11 38 17 47 51 47 174 l0 113 -31 26 c-30 26 -32 26
-209 26 -177 0 -179 0 -209 -26z"/>
<path d="M5023 11890 c-67 -40 -87 -110 -51 -180 18 -36 33 -49 69 -64 64 -26
112 -16 161 34 33 33 38 44 38 84 0 58 -21 101 -63 126 -42 26 -112 26 -154 0z"/>
<path d="M17245 11135 c-91 -32 -127 -139 -75 -222 8 -12 31 -31 53 -43 48
-28 120 -24 165 9 39 27 67 98 58 145 -17 88 -114 142 -201 111z"/>
<path d="M19719 7376 c-48 -17 -86 -48 -118 -94 -22 -31 -26 -48 -26 -104 0
-58 4 -72 30 -110 46 -65 113 -98 200 -98 106 0 193 52 225 135 27 70 4 170
-52 222 -61 57 -176 79 -259 49z"/>
<path d="M18806 6994 c-135 -33 -287 -146 -348 -260 -156 -290 28 -635 377
-709 376 -79 731 212 678 555 -31 195 -197 366 -404 415 -79 18 -225 18 -303
-1z m264 -258 c0 -7 -21 -33 -47 -58 -44 -43 -50 -46 -67 -32 -31 23 -89 18
-120 -11 -40 -37 -31 -95 16 -95 10 0 60 19 110 42 148 67 234 64 298 -8 58
-66 60 -147 5 -228 -14 -20 -25 -41 -25 -46 0 -5 14 -20 31 -33 l32 -25 -21
-28 c-11 -16 -31 -39 -44 -52 l-25 -22 -45 40 c-30 26 -56 40 -73 40 -20 0
-26 -4 -21 -15 3 -8 8 -21 11 -27 2 -7 -16 -35 -41 -63 l-44 -50 -82 83 -83
82 51 51 c47 47 52 49 76 38 35 -15 70 -5 113 33 27 23 35 38 33 57 -4 38 -44
39 -116 2 -33 -17 -87 -38 -121 -47 -77 -22 -133 -8 -184 45 -61 62 -73 130
-37 210 l21 44 -25 26 -25 26 46 48 46 49 36 -34 c29 -27 43 -33 69 -30 33 3
33 4 16 23 -17 19 -16 21 31 69 l48 49 79 -71 c43 -39 78 -76 78 -82z"/>
<path d="M17977 5995 c-97 -37 -147 -106 -147 -202 0 -83 36 -138 120 -182
115 -60 271 -13 328 99 50 100 7 216 -103 272 -51 26 -147 33 -198 13z"/>
<path d="M14737 19833 c-4 -3 -7 -30 -7 -60 0 -52 0 -53 30 -53 29 0 30 2 30
44 0 24 -3 51 -6 60 -6 16 -35 22 -47 9z"/>
<path d="M8094 19800 c-53 -21 -69 -88 -33 -134 l20 -26 509 0 509 0 20 26
c28 35 26 77 -3 111 l-24 28 -489 2 c-268 1 -498 -2 -509 -7z"/>
<path d="M14025 19596 c-17 -12 4 -51 312 -586 l331 -573 -24 -35 c-26 -38
-31 -87 -13 -137 11 -31 9 -36 -131 -224 l-143 -193 24 -19 c13 -10 29 -18 34
-18 6 0 73 85 149 189 l139 190 53 0 c52 0 54 -1 80 -45 26 -45 50 -57 60 -31
3 8 -5 34 -19 56 l-25 42 24 41 c13 23 24 58 24 77 l0 36 398 216 c218 119
398 222 399 230 2 7 -5 23 -15 34 l-17 22 -401 -219 -401 -219 -39 21 c-24 12
-53 19 -78 17 l-39 -3 -328 568 c-180 313 -329 571 -332 573 -2 2 -12 -2 -22
-10z"/>
<path d="M14592 19579 c-30 -12 -23 -33 11 -37 l27 -3 0 -109 c0 -89 3 -109
16 -114 9 -3 20 -4 25 0 5 3 9 66 9 140 l0 134 -32 -1 c-18 0 -44 -4 -56 -10z"/>
<path d="M14772 19574 c-22 -15 -30 -48 -13 -58 5 -3 20 3 34 14 29 23 57 26
75 8 26 -26 12 -54 -65 -125 -54 -51 -74 -76 -67 -83 7 -7 49 -10 105 -8 76 2
94 6 94 18 0 11 -16 16 -65 21 -36 3 -60 6 -55 7 6 1 34 24 63 51 47 43 52 52
52 89 0 58 -26 82 -88 82 -27 0 -57 -7 -70 -16z"/>
<path d="M15460 19568 c-23 -25 -27 -58 -6 -58 18 0 46 38 46 62 0 24 -15 23
-40 -4z"/>
<path d="M9260 19011 l0 -388 188 -5 c103 -3 195 -2 204 3 9 5 20 24 23 42 4
17 5 178 3 357 -3 292 -5 329 -21 353 l-17 27 -190 0 -190 0 0 -389z"/>
<path d="M13490 19056 c0 -18 38 -46 62 -46 26 0 22 25 -7 44 -30 20 -55 21
-55 2z"/>
<path d="M15975 19048 c-21 -12 -35 -28 -35 -40 0 -16 47 -7 68 13 35 32 11
52 -33 27z"/>
<path d="M13545 18463 c-30 -8 -62 -41 -68 -70 -14 -76 67 -138 134 -103 16 9
19 7 19 -8 0 -42 -57 -65 -101 -41 -15 7 -24 7 -34 -1 -21 -17 -8 -38 32 -51
111 -36 190 69 152 204 -15 54 -75 85 -134 70z m73 -55 c36 -36 -11 -98 -60
-79 -33 13 -42 38 -23 67 17 26 62 33 83 12z"/>
<path d="M15832 18443 c2 -14 15 -19 56 -21 l53 -3 -30 -35 c-41 -46 -41 -74
-2 -74 16 0 37 -7 45 -16 19 -18 19 -20 6 -45 -13 -24 -52 -25 -91 -2 -23 14
-31 15 -41 5 -19 -19 2 -45 51 -61 36 -11 48 -11 79 1 72 27 81 113 16 146
l-34 18 35 34 c19 19 35 42 35 52 0 16 -10 18 -91 18 -81 0 -90 -2 -87 -17z"/>
<path d="M13247 18354 c-16 -17 -4 -24 39 -24 32 0 44 4 42 13 -5 13 -69 22
-81 11z"/>
<path d="M16127 18354 c-17 -18 -4 -25 41 -22 26 2 47 8 47 13 0 12 -77 19
-88 9z"/>
<path d="M13512 17629 c-23 -20 -22 -39 2 -39 17 0 66 38 66 51 0 17 -46 9
-68 -12z"/>
<path d="M15950 17632 c0 -22 39 -46 66 -40 17 3 16 6 -8 31 -31 31 -58 35
-58 9z"/>
<path d="M14712 17327 c-75 -35 -83 -219 -13 -257 11 -5 40 -10 66 -10 61 0
95 32 95 88 0 64 -63 106 -124 82 -37 -14 -41 -9 -22 28 18 35 38 42 84 28 46
-14 67 7 33 35 -26 21 -82 24 -119 6z m86 -150 c15 -12 16 -49 0 -65 -33 -33
-107 5 -93 48 11 36 58 44 93 17z"/>
<path d="M15437 17136 c-6 -15 28 -76 42 -76 16 0 19 24 5 51 -15 31 -40 44
-47 25z"/>
<path d="M14036 17118 c-18 -25 -21 -58 -6 -58 15 0 50 42 50 62 0 25 -26 23
-44 -4z"/>
</g>
</svg>
